<?xml version="1.0"?>
<svg xmlns="http://www.w3.org/2000/svg" viewBox="0 0 64 64" width="512" height="512" fill="#4B92DD">
    <g id="outline">
        <path d="M6,11V28.244A33.034,33.034,0,0,0,22.876,57.037l8.635,4.836a1,1,0,0,0,.978,0l8.635-4.836A33.034,33.034,0,0,0,58,28.244V11a1,1,0,0,0-1-1A41.812,41.812,0,0,1,33.738,2.957l-1.183-.789a1,1,0,0,0-1.11,0l-1.183.789A41.812,41.812,0,0,1,7,10,1,1,0,0,0,6,11Zm2,.989A43.794,43.794,0,0,0,31.371,4.621L32,4.2l.629.419A43.794,43.794,0,0,0,56,11.989V28.244A31.032,31.032,0,0,1,40.146,55.292L32,59.854l-8.146-4.562A31.032,31.032,0,0,1,8,28.244Z" />
        <path d="M24.831,53.547l6.68,3.741a1,1,0,0,0,.978,0l6.68-3.742A29.026,29.026,0,0,0,54,28.244V14.831a1,1,0,0,0-.916-1A46.034,46.034,0,0,1,32.533,6.942a1,1,0,0,0-1.066,0,46.034,46.034,0,0,1-20.551,6.892,1,1,0,0,0-.916,1V28.244A29.029,29.029,0,0,0,24.831,53.547ZM12,15.741A48.075,48.075,0,0,0,32,8.965a48.075,48.075,0,0,0,20,6.776v12.5A27.026,27.026,0,0,1,38.192,51.8L32,55.27,25.808,51.8A27.029,27.029,0,0,1,12,28.244Z" />
        <path d="M21,27V39a1,1,0,0,0,1,1H42a1,1,0,0,0,1-1V27h2a1,1,0,0,0,.569-1.822l-13-9a1,1,0,0,0-1.138,0l-13,9A1,1,0,0,0,19,27ZM34,38H30V32h4ZM32,18.216l9.822,6.8A1,1,0,0,0,41,26V38H36V31a1,1,0,0,0-1-1H29a1,1,0,0,0-1,1v7H23V26a1,1,0,0,0-.822-.984Z" />
        <rect x="31" y="12" width="2" height="2" />
        <rect x="48" y="18" width="2" height="2" />
        <rect x="48" y="31" width="2" height="2" />
        <rect x="43" y="42" width="2" height="2" />
        <rect x="31" y="51" width="2" height="2" />
        <rect x="14" y="18" width="2" height="2" />
        <rect x="14" y="31" width="2" height="2" />
        <rect x="19" y="42" width="2" height="2" />
    </g>
</svg>
